<svg width="1705" height="1375" viewBox="0 0 1705 1375" fill="none" xmlns="http://www.w3.org/2000/svg">
<path fill-rule="evenodd" clip-rule="evenodd" d="M605.855 600.846C369.623 711.882 160.352 810.245 8.02746 1017.64L0.0604968 1011.78C153.923 802.299 365.381 702.928 601.104 592.155C615.849 585.225 630.689 578.252 645.616 571.204C899.34 451.4 1179.12 309.783 1447.71 0.817954L1455.17 7.30333C1185.19 317.867 903.867 460.194 649.837 580.142C635.082 587.109 620.423 593.999 605.867 600.841L605.855 600.846ZM668.182 690.118C431.95 801.153 222.678 899.516 70.3542 1106.91L62.3873 1101.06C216.249 891.571 427.708 792.2 663.431 681.426L663.434 681.425C678.178 674.496 693.017 667.523 707.943 660.475C961.666 540.672 1241.44 399.055 1510.04 90.0896L1517.5 96.575C1247.51 407.139 966.194 549.465 712.163 669.414C697.415 676.378 682.762 683.265 668.21 690.105L668.182 690.118ZM132.686 1196.17C285.01 988.778 494.282 890.415 730.513 779.38L730.519 779.377L730.572 779.353L730.673 779.305C745.181 772.486 759.791 765.619 774.495 758.676C1028.53 638.727 1309.85 496.401 1579.83 185.837L1572.37 179.352C1303.78 488.317 1024 629.934 770.274 749.737C755.348 756.785 740.508 763.759 725.763 770.688C490.04 881.462 278.581 980.833 124.719 1190.32L132.686 1196.17ZM792.843 868.649C556.611 979.684 347.339 1078.05 195.015 1285.44L187.048 1279.59C340.91 1070.1 552.369 970.731 788.092 859.957C802.837 853.028 817.677 846.055 832.604 839.006C1086.33 719.203 1366.11 577.586 1634.7 268.621L1642.16 275.106C1372.18 585.67 1090.85 727.997 836.824 847.945C822.086 854.904 807.443 861.787 792.902 868.622L792.848 868.647L792.843 868.649ZM257.351 1374.7C409.676 1167.31 618.947 1068.95 855.179 957.911L855.185 957.909C869.743 951.066 884.404 944.175 899.161 937.207C1153.19 817.259 1434.51 674.932 1704.49 364.368L1697.03 357.883C1428.44 666.848 1148.66 808.465 894.94 928.268C880.013 935.317 865.173 942.29 850.428 949.219C614.705 1059.99 403.247 1159.36 249.384 1368.85L257.351 1374.7Z" fill="white"/>
</svg>
