<svg width="728" height="301" viewBox="0 0 728 301" fill="none" xmlns="http://www.w3.org/2000/svg">
<path d="M242.94 30.4C240.907 29.3833 238.67 29.0783 236.23 29.485C233.79 29.8917 231.35 30.705 228.91 31.925C226.47 32.9417 224.132 34.1617 221.895 35.585C219.658 36.805 217.727 37.9233 216.1 38.94C213.05 40.9733 210 43.1083 206.95 45.345C204.103 47.5817 201.257 49.8183 198.41 52.055C204.307 51.2417 210.305 50.7333 216.405 50.53C222.505 50.1233 228.707 49.92 235.01 49.92C240.5 49.92 245.99 50.1233 251.48 50.53C257.173 50.7333 262.765 51.3433 268.255 52.36C270.085 52.7667 271.813 53.3767 273.44 54.19C275.27 55.0033 275.982 56.63 275.575 59.07C275.372 60.6967 274.558 61.9167 273.135 62.73C271.915 63.5433 270.492 63.7467 268.865 63.34C264.392 63.34 259.817 62.8317 255.14 61.815C250.667 60.595 246.092 59.7817 241.415 59.375C235.722 58.9683 230.028 58.765 224.335 58.765C218.845 58.765 213.253 58.9683 207.56 59.375C204.103 59.5783 200.85 59.8833 197.8 60.29C194.75 60.4933 191.598 60.7983 188.345 61.205C179.805 69.135 171.875 77.37 164.555 85.91C157.235 94.2467 150.017 102.99 142.9 112.14C135.987 121.29 129.378 130.643 123.075 140.2C116.975 149.757 111.587 159.822 106.91 170.395C104.47 175.072 102.335 179.952 100.505 185.035C98.675 190.118 97.2517 195.202 96.235 200.285C95.8283 202.725 95.5233 205.165 95.32 207.605C95.32 210.045 95.7267 212.383 96.54 214.62C97.3533 216.653 98.5733 218.483 100.2 220.11C101.827 221.737 102.233 223.567 101.42 225.6C100.403 228.04 99.1833 229.26 97.76 229.26C96.3367 229.463 94.9133 228.955 93.49 227.735C92.0667 226.718 90.745 225.295 89.525 223.465C88.5083 221.838 87.7967 220.517 87.39 219.5C85.56 214.417 85.1533 209.028 86.17 203.335C87.39 197.845 88.8133 192.66 90.44 187.78C94.3033 177.207 98.98 167.04 104.47 157.28C110.163 147.317 116.263 137.76 122.77 128.61C129.48 118.85 136.393 109.395 143.51 100.245C150.83 91.095 158.353 82.25 166.08 73.71L176.45 62.73C169.74 63.7467 163.132 64.9667 156.625 66.39C150.322 67.61 143.917 68.9317 137.41 70.355C126.227 72.9983 115.145 75.9467 104.165 79.2C93.3883 82.25 82.51 85.5033 71.53 88.96C66.04 90.79 60.55 92.62 55.06 94.45C49.7733 96.28 44.4867 98.3133 39.2 100.55C37.37 101.16 35.4383 101.465 33.405 101.465C31.575 101.465 30.1517 100.347 29.135 98.11C28.7283 96.6867 28.83 95.2633 29.44 93.84C30.2533 92.4167 31.3717 91.4 32.795 90.79C54.9583 84.69 77.1217 78.59 99.285 72.49C121.448 66.1867 143.917 61.0017 166.69 56.935C169.74 56.325 172.79 55.8167 175.84 55.41C178.89 54.8 181.94 54.2917 184.99 53.885C190.073 49.005 195.258 44.3283 200.545 39.855C206.035 35.3817 211.728 31.315 217.625 27.655C221.692 25.0117 226.165 22.775 231.045 20.945C235.925 18.9117 240.907 18.7083 245.99 20.335C248.023 20.945 249.345 21.9617 249.955 23.385C250.565 24.8083 250.667 26.2317 250.26 27.655C249.853 28.875 248.938 29.8917 247.515 30.705C246.295 31.5183 244.77 31.4167 242.94 30.4ZM158.055 162.77C163.341 161.143 168.526 159.212 173.61 156.975C178.693 154.535 183.776 152.197 188.86 149.96C190.08 149.35 191.91 148.232 194.35 146.605C196.993 144.775 199.636 143.148 202.28 141.725C204.923 140.302 207.363 139.387 209.6 138.98C212.04 138.37 213.87 138.98 215.09 140.81C216.106 142.437 216.208 144.063 215.395 145.69C214.785 147.113 213.768 148.638 212.345 150.265C210.921 151.688 209.396 153.112 207.77 154.535C206.143 155.755 204.923 156.772 204.11 157.585C201.06 160.635 198.111 163.99 195.265 167.65C192.418 171.31 190.995 175.173 190.995 179.24C194.655 179.24 198.518 178.325 202.585 176.495C206.651 174.665 210.21 173.14 213.26 171.92C223.02 167.447 232.678 162.363 242.235 156.67C247.521 153.417 252.3 150.163 256.57 146.91C258.4 145.69 260.23 145.69 262.06 146.91C264.093 148.13 264.906 149.96 264.5 152.4C264.093 154.23 263.178 156.06 261.755 157.89C260.535 159.517 259.416 161.245 258.4 163.075C257.383 164.702 256.366 166.938 255.35 169.785C254.536 172.632 254.536 175.173 255.35 177.41C257.586 178.63 260.331 178.833 263.585 178.02C266.838 177.003 269.481 176.19 271.515 175.58C280.258 172.53 288.391 169.073 295.915 165.21C297.338 164.6 299.066 163.787 301.1 162.77C303.336 161.55 304.963 161.957 305.98 163.99C306.996 165.82 306.793 167.243 305.37 168.26C304.15 169.073 302.828 169.785 301.405 170.395L281.275 179.85C277.005 181.68 272.328 183.815 267.245 186.255C262.161 188.492 257.078 189 251.995 187.78C248.335 186.763 246.2 184.73 245.59 181.68C245.183 178.427 245.488 175.377 246.505 172.53L251.08 161.55C245.793 163.99 240.608 166.532 235.525 169.175C230.645 171.818 225.561 174.258 220.275 176.495C218.038 177.715 215.395 179.24 212.345 181.07C209.295 182.697 206.041 184.323 202.585 185.95C199.331 187.373 196.078 188.39 192.825 189C189.571 189.813 186.725 189.712 184.285 188.695C181.845 187.882 180.523 186.357 180.32 184.12C180.32 181.68 180.93 178.935 182.15 175.885C183.37 172.835 185.098 169.582 187.335 166.125C189.571 162.668 191.91 159.313 194.35 156.06L187.03 159.415C178.693 162.465 172.695 164.803 169.035 166.43C165.375 168.057 162.528 169.073 160.495 169.48C159.275 169.887 158.36 169.785 157.75 169.175C156.936 168.565 156.428 167.853 156.225 167.04C155.818 166.227 155.818 165.413 156.225 164.6C156.428 163.787 157.038 163.177 158.055 162.77ZM301.016 163.075C303.456 161.855 306.506 160.33 310.166 158.5C314.03 156.467 318.096 154.535 322.366 152.705C326.636 150.875 330.703 149.147 334.566 147.52C338.633 145.893 341.988 144.572 344.631 143.555C346.055 142.945 348.596 142.03 352.256 140.81C355.916 139.59 359.78 138.472 363.846 137.455C367.913 136.438 371.675 135.727 375.131 135.32C378.791 134.913 381.435 135.218 383.061 136.235C385.501 138.472 385.908 140.505 384.281 142.335C382.858 144.165 381.028 145.283 378.791 145.69L365.066 147.215C362.22 148.028 359.78 149.045 357.746 150.265C355.916 151.282 353.781 152.603 351.341 154.23C350.325 155.043 348.495 156.772 345.851 159.415C343.411 161.855 340.971 164.6 338.531 167.65C336.091 170.497 334.16 173.343 332.736 176.19C331.313 178.833 331.313 180.765 332.736 181.985C333.956 183.002 335.888 183.205 338.531 182.595C341.378 181.985 344.225 181.07 347.071 179.85C349.918 178.63 352.561 177.41 355.001 176.19C357.441 174.767 359.068 173.75 359.881 173.14C365.778 169.48 370.556 165.617 374.216 161.55C376.046 159.517 377.978 159.313 380.011 160.94C382.248 162.363 382.96 164.397 382.146 167.04C381.74 168.463 381.028 169.683 380.011 170.7C378.995 171.717 377.978 172.733 376.961 173.75C376.148 174.563 375.436 175.783 374.826 177.41C374.013 178.833 373.81 179.952 374.216 180.765C374.623 181.375 375.335 181.782 376.351 181.985C379.198 182.392 382.756 182.188 387.026 181.375C391.296 180.562 395.668 179.443 400.141 178.02C404.818 176.597 409.393 174.97 413.866 173.14C418.34 171.107 422.203 169.277 425.456 167.65C426.27 167.447 427.388 166.938 428.811 166.125C430.235 165.108 431.658 164.295 433.081 163.685C434.708 163.075 436.233 162.77 437.656 162.77C439.08 162.77 440.096 163.38 440.706 164.6C441.52 165.82 441.418 166.938 440.401 167.955C439.588 168.972 438.368 169.887 436.741 170.7C435.115 171.31 433.488 171.92 431.861 172.53C430.235 173.14 429.015 173.648 428.201 174.055C424.745 175.682 421.288 177.308 417.831 178.935C414.375 180.358 410.816 181.883 407.156 183.51C404.716 184.527 402.073 185.747 399.226 187.17C396.38 188.593 393.431 189.813 390.381 190.83C387.331 191.847 384.18 192.558 380.926 192.965C377.876 193.372 375.03 193.067 372.386 192.05C368.93 190.627 366.896 188.695 366.286 186.255C365.676 183.612 365.778 180.867 366.591 178.02L358.356 182.9C354.9 184.933 351.24 186.967 347.376 189C343.716 191.237 339.853 192.558 335.786 192.965C332.126 193.168 328.873 192.355 326.026 190.525C323.18 188.695 321.655 185.848 321.451 181.985C321.451 179.952 322.265 177.41 323.891 174.36C325.518 171.107 327.551 167.853 329.991 164.6C332.635 161.143 335.481 157.992 338.531 155.145C341.581 152.298 344.428 150.163 347.071 148.74C345.648 149.147 343.31 150.062 340.056 151.485C337.006 152.908 333.448 154.637 329.381 156.67C325.518 158.703 321.35 160.838 316.876 163.075C312.606 165.108 308.641 167.04 304.981 168.87C303.965 169.48 302.948 169.683 301.931 169.48C300.915 169.073 300.203 168.565 299.796 167.955C299.186 167.142 298.983 166.328 299.186 165.515C299.186 164.498 299.796 163.685 301.016 163.075ZM435.042 163.075C437.279 161.855 441.142 159.822 446.632 156.975C452.122 153.925 457.714 151.078 463.407 148.435C469.304 145.792 474.692 143.962 479.572 142.945C484.452 141.928 487.502 142.742 488.722 145.385C489.536 147.418 489.231 149.452 487.807 151.485C486.587 153.315 485.672 155.043 485.062 156.67L481.402 165.21C484.046 163.583 486.689 162.16 489.332 160.94C491.976 159.72 494.619 158.5 497.262 157.28C503.769 153.823 510.479 150.163 517.392 146.3C524.306 142.437 531.321 139.488 538.437 137.455C541.081 136.845 543.419 136.845 545.452 137.455C547.486 137.862 549.011 138.777 550.027 140.2C551.247 141.42 551.857 143.148 551.857 145.385C551.857 147.418 551.044 149.655 549.417 152.095C547.587 154.942 545.554 157.483 543.317 159.72C541.284 161.957 539.149 164.397 536.912 167.04C536.506 167.65 535.794 168.463 534.777 169.48C533.761 170.497 532.642 171.717 531.422 173.14C530.406 174.36 529.389 175.682 528.372 177.105C527.559 178.325 527.051 179.443 526.847 180.46C528.271 180.867 529.999 180.867 532.032 180.46C534.269 180.053 536.404 179.545 538.437 178.935C540.674 178.122 542.707 177.308 544.537 176.495C546.571 175.682 548.096 175.072 549.112 174.665L561.617 169.175C562.431 168.768 563.447 168.158 564.667 167.345C566.091 166.532 567.514 165.82 568.937 165.21C570.361 164.397 571.682 163.685 572.902 163.075C574.326 162.465 575.444 162.16 576.257 162.16C578.087 162.16 579.002 163.075 579.002 164.905C579.002 166.735 578.189 168.158 576.562 169.175C574.732 170.192 572.801 171.208 570.767 172.225C568.734 173.038 566.599 173.953 564.362 174.97C561.516 176.597 558.771 178.02 556.127 179.24C553.484 180.46 550.739 181.782 547.892 183.205C546.266 184.018 543.622 185.238 539.962 186.865C536.506 188.288 532.947 189.305 529.287 189.915C525.831 190.728 522.781 190.627 520.137 189.61C517.494 188.797 516.172 186.357 516.172 182.29C516.172 180.257 516.681 178.427 517.697 176.8C518.714 175.173 519.832 173.648 521.052 172.225C522.476 170.598 523.899 169.073 525.322 167.65C526.949 166.227 528.372 164.905 529.592 163.685C530.812 162.668 532.846 160.533 535.692 157.28C538.539 154.027 540.369 150.977 541.182 148.13C535.692 148.74 530.101 150.163 524.407 152.4C518.917 154.637 513.834 156.975 509.157 159.415C503.261 162.262 497.161 165.515 490.857 169.175C484.554 172.632 479.064 176.8 474.387 181.68C473.371 182.493 472.252 183.002 471.032 183.205C470.016 183.205 468.999 183.002 467.982 182.595C466.966 181.985 466.152 181.172 465.542 180.155C465.136 179.138 465.136 177.817 465.542 176.19C466.152 174.36 467.677 172.733 470.117 171.31C471.134 169.683 472.151 167.853 473.167 165.82C474.184 163.583 474.896 162.262 475.302 161.855C475.709 160.432 476.116 159.008 476.522 157.585C476.929 155.958 477.234 154.332 477.437 152.705C475.201 153.315 472.964 154.027 470.727 154.84C468.491 155.653 466.762 156.263 465.542 156.67C462.696 157.89 459.849 159.11 457.002 160.33C454.156 161.347 451.309 162.567 448.462 163.99C446.836 164.803 445.311 165.617 443.887 166.43C442.667 167.243 441.244 167.955 439.617 168.565C438.397 169.175 437.177 169.378 435.957 169.175C434.941 168.768 434.127 168.26 433.517 167.65C432.907 167.04 432.704 166.328 432.907 165.515C432.907 164.498 433.619 163.685 435.042 163.075ZM573.543 163.075C585.54 157.178 597.232 151.18 608.618 145.08C611.872 143.453 615.532 141.217 619.598 138.37C623.665 135.523 627.528 133.693 631.188 132.88C633.425 132.473 635.255 133.287 636.678 135.32C638.102 137.353 638 139.387 636.373 141.42C635.357 143.25 633.832 144.978 631.798 146.605C629.968 148.028 628.342 149.553 626.918 151.18C622.852 156.06 619.497 161.245 616.853 166.735C616.243 167.752 615.633 168.972 615.023 170.395C614.413 171.818 613.905 173.343 613.498 174.97C613.092 176.393 612.888 177.715 612.888 178.935C612.888 180.155 613.295 181.07 614.108 181.68C614.718 182.29 616.04 182.188 618.073 181.375C620.107 180.358 622.343 179.24 624.783 178.02C627.223 176.597 629.46 175.275 631.493 174.055C633.527 172.632 634.747 171.717 635.153 171.31C639.423 168.463 643.388 165.515 647.048 162.465C650.912 159.415 654.572 156.162 658.028 152.705C658.842 151.892 659.96 151.18 661.383 150.57C662.807 149.96 664.128 149.757 665.348 149.96C666.568 150.163 667.483 150.773 668.093 151.79C668.907 152.603 669.212 153.925 669.008 155.755C668.398 157.992 667.28 160.33 665.653 162.77C664.027 165.007 662.705 167.04 661.688 168.87C660.062 171.107 658.638 173.343 657.418 175.58C656.198 177.817 654.877 180.053 653.453 182.29L629.663 225.6C636.577 216.45 644.202 207.91 652.538 199.98C653.352 199.167 655.182 197.438 658.028 194.795C660.875 192.152 664.128 189.203 667.788 185.95C671.448 182.697 675.312 179.443 679.378 176.19C683.648 172.733 687.613 169.785 691.273 167.345C695.137 164.905 698.39 163.177 701.033 162.16C703.677 161.143 705.405 161.347 706.218 162.77C706.828 163.99 706.218 165.515 704.388 167.345C702.762 168.972 700.627 170.7 697.983 172.53C695.543 174.157 693.002 175.682 690.358 177.105C687.715 178.528 685.987 179.545 685.173 180.155C680.497 183.612 675.922 187.17 671.448 190.83C667.178 194.693 663.01 198.76 658.943 203.03C651.013 210.96 643.49 219.5 636.373 228.65C629.46 238.003 622.953 247.56 616.853 257.32C614.617 261.387 612.38 265.453 610.143 269.52C607.907 273.587 605.772 277.653 603.738 281.72C602.925 282.94 602.213 284.262 601.603 285.685C600.993 287.108 600.18 288.328 599.163 289.345C597.537 290.362 595.808 290.565 593.978 289.955C592.148 289.345 591.03 288.125 590.623 286.295C590.013 284.668 590.115 283.143 590.928 281.72C591.945 280.5 592.86 279.28 593.673 278.06C596.52 272.977 599.265 267.995 601.908 263.115C604.755 258.235 607.602 253.152 610.448 247.865C616.142 237.495 621.632 227.227 626.918 217.06C632.408 206.893 637.797 196.422 643.083 185.645C644.303 182.798 645.625 180.053 647.048 177.41C648.472 174.563 649.793 171.717 651.013 168.87L638.203 178.63C636.373 180.257 634.34 182.087 632.103 184.12C629.867 185.95 627.528 187.577 625.088 189C622.648 190.627 620.107 191.745 617.463 192.355C615.023 192.965 612.583 192.66 610.143 191.44C606.687 190.22 604.653 188.085 604.043 185.035C603.637 181.985 603.942 178.528 604.958 174.665C606.178 170.598 607.907 166.43 610.143 162.16C612.583 157.89 615.023 153.823 617.463 149.96L602.213 156.365C598.757 157.992 595.3 159.72 591.843 161.55C588.387 163.177 584.93 164.905 581.473 166.735C580.253 167.548 578.932 168.362 577.508 169.175C576.085 169.988 574.56 169.988 572.933 169.175C571.713 168.362 571.205 167.243 571.408 165.82C571.408 164.397 572.12 163.482 573.543 163.075Z" fill="white"/>
<path d="M271.688 269V233.562L255.506 261.286H253.534L237.352 233.562V269H234.394V227.82H237.352L254.52 257.284L271.688 227.82H274.646V269H271.688ZM299.431 269V239.18H302.371V269H299.431ZM321.189 269V239.18H333.789C335.077 239.18 336.253 239.446 337.317 239.978C338.409 240.51 339.347 241.238 340.131 242.162C340.915 243.058 341.517 244.066 341.937 245.186C342.385 246.278 342.609 247.398 342.609 248.546C342.609 250.002 342.329 251.36 341.769 252.62C341.237 253.88 340.467 254.944 339.459 255.812C338.451 256.68 337.289 257.24 335.973 257.492L343.281 269H339.963L332.949 257.996H324.129V269H321.189ZM324.129 255.392H333.873C335.049 255.392 336.071 255.07 336.939 254.426C337.807 253.754 338.479 252.9 338.955 251.864C339.431 250.828 339.669 249.722 339.669 248.546C339.669 247.342 339.389 246.236 338.829 245.228C338.297 244.192 337.569 243.366 336.645 242.75C335.721 242.106 334.713 241.784 333.621 241.784H324.129V255.392ZM369.086 239.18H371.564L383.954 269H380.846L376.982 259.676H363.584L359.762 269H356.612L369.086 239.18ZM376.31 257.366L370.304 242.624L364.214 257.366H376.31ZM402.508 244.598V269H399.568V239.18H402.004L421.576 264.044V239.222H424.516V269H421.786L402.508 244.598ZM443.352 269V239.18H453.474C456.638 239.18 459.27 239.852 461.37 241.196C463.498 242.512 465.094 244.304 466.158 246.572C467.222 248.812 467.754 251.304 467.754 254.048C467.754 257.072 467.166 259.704 465.99 261.944C464.814 264.184 463.162 265.92 461.034 267.152C458.906 268.384 456.386 269 453.474 269H443.352ZM464.814 254.048C464.814 251.668 464.366 249.554 463.47 247.706C462.602 245.858 461.314 244.416 459.606 243.38C457.926 242.316 455.882 241.784 453.474 241.784H446.292V266.396H453.474C455.938 266.396 458.01 265.85 459.69 264.758C461.37 263.666 462.644 262.196 463.512 260.348C464.38 258.5 464.814 256.4 464.814 254.048ZM492.889 239.18H495.367L507.757 269H504.649L500.785 259.676H487.387L483.565 269H480.415L492.889 239.18ZM500.113 257.366L494.107 242.624L488.017 257.366H500.113Z" fill="white"/>
</svg>
