<svg width="164" height="68" viewBox="0 0 164 68" fill="none" xmlns="http://www.w3.org/2000/svg">
<path d="M54.7283 6.86775C54.2703 6.63806 53.7663 6.56916 53.2167 6.66104C52.667 6.75292 52.1173 6.93665 51.5676 7.21227C51.018 7.44195 50.4913 7.71757 49.9873 8.03911C49.4834 8.31473 49.0484 8.56737 48.6819 8.79705C47.9948 9.2564 47.3077 9.73873 46.6206 10.244C45.9793 10.7493 45.3381 11.2546 44.6968 11.7599C46.0252 11.5762 47.3764 11.4613 48.7506 11.4154C50.1248 11.3235 51.5219 11.2776 52.9418 11.2776C54.1786 11.2776 55.4153 11.3235 56.6521 11.4154C57.9346 11.4613 59.1943 11.5991 60.4311 11.8288C60.8433 11.9207 61.2326 12.0585 61.5991 12.2422C62.0114 12.426 62.1718 12.7935 62.0801 13.3447C62.0344 13.7122 61.851 13.9878 61.5304 14.1715C61.2556 14.3553 60.935 14.4012 60.5685 14.3093C59.5608 14.3093 58.5302 14.1945 57.4766 13.9648C56.4689 13.6892 55.4383 13.5055 54.3847 13.4136C53.1022 13.3217 51.8195 13.2758 50.537 13.2758C49.3003 13.2758 48.0405 13.3217 46.758 13.4136C45.9793 13.4595 45.2464 13.5284 44.5594 13.6203C43.8723 13.6662 43.1622 13.7351 42.4294 13.827C40.5055 15.6185 38.7191 17.4789 37.0701 19.4082C35.4211 21.2916 33.795 23.2668 32.1918 25.3339C30.6344 27.401 29.1456 29.514 27.7257 31.6731C26.3515 33.8321 25.1377 36.1059 24.0841 38.4945C23.5345 39.5511 23.0535 40.6536 22.6412 41.8019C22.229 42.9502 21.9084 44.0988 21.6793 45.2471C21.5877 45.7983 21.519 46.3495 21.4732 46.9008C21.4732 47.452 21.5648 47.9802 21.748 48.4856C21.9313 48.9448 22.2061 49.3583 22.5725 49.7258C22.9391 50.0934 23.0305 50.5068 22.8474 50.9661C22.6183 51.5173 22.3435 51.7929 22.0229 51.7929C21.7022 51.8388 21.3816 51.724 21.0609 51.4484C20.7403 51.2187 20.4426 50.8972 20.1677 50.4838C19.9387 50.1162 19.7784 49.8178 19.6868 49.588C19.2745 48.4397 19.1829 47.2222 19.4119 45.9361C19.6868 44.6959 20.0074 43.5245 20.3739 42.422C21.2442 40.0335 22.2977 37.7366 23.5345 35.5317C24.817 33.2809 26.1911 31.1218 27.657 29.0547C29.1686 26.8498 30.7259 24.7138 32.3292 22.6467C33.9782 20.5796 35.6729 18.5814 37.4136 16.6521L39.7497 14.1715C38.2381 14.4012 36.7495 14.6768 35.2837 14.9984C33.8638 15.274 32.4209 15.5726 30.955 15.8941C28.4358 16.4913 25.9393 17.1574 23.4658 17.8923C21.038 18.5814 18.5874 19.3163 16.1139 20.0973C14.8772 20.5107 13.6404 20.9241 12.4036 21.3375C11.2127 21.7509 10.0217 22.2103 8.83078 22.7156C8.41853 22.8534 7.98337 22.9223 7.52532 22.9223C7.11306 22.9223 6.79243 22.6697 6.56339 22.1644C6.47177 21.8428 6.49468 21.5213 6.6321 21.1997C6.81532 20.8782 7.06726 20.6485 7.3879 20.5107C12.3807 19.1326 17.3736 17.7545 22.3664 16.3765C27.3592 14.9525 32.4209 13.7811 37.5511 12.8624C38.2381 12.7246 38.9252 12.6097 39.6123 12.5178C40.2994 12.38 40.9865 12.2652 41.6736 12.1733C42.8187 11.0709 43.9867 10.0143 45.1777 9.00376C46.4145 7.99318 47.697 7.07446 49.0254 6.24762C49.9416 5.65046 50.9493 5.14516 52.0486 4.73174C53.1479 4.27239 54.2703 4.22644 55.4153 4.59393C55.8733 4.73174 56.1711 4.96142 56.3086 5.28297C56.446 5.60451 56.4689 5.92607 56.3773 6.24762C56.2856 6.52323 56.0794 6.75292 55.7589 6.93665C55.484 7.12039 55.1405 7.09744 54.7283 6.86775ZM35.6058 36.7719C36.7966 36.4044 37.9647 35.9681 39.11 35.4628C40.255 34.9115 41.4001 34.3834 42.5454 33.878C42.8202 33.7402 43.2325 33.4876 43.7822 33.12C44.3776 32.7066 44.973 32.3391 45.5686 32.0176C46.164 31.6961 46.7137 31.4894 47.2176 31.3974C47.7673 31.2596 48.1795 31.3974 48.4543 31.8109C48.6832 32.1784 48.7062 32.5458 48.5231 32.9133C48.3856 33.2348 48.1565 33.5793 47.836 33.9469C47.5152 34.2684 47.1716 34.5901 46.8053 34.9115C46.4388 35.1872 46.164 35.4169 45.9808 35.6006C45.2937 36.2896 44.6294 37.0476 43.9883 37.8744C43.3469 38.7012 43.0264 39.5739 43.0264 40.4927C43.8509 40.4927 44.7211 40.286 45.6373 39.8726C46.5533 39.4592 47.355 39.1147 48.0421 38.839C50.2408 37.8285 52.4165 36.68 54.5694 35.3939C55.7602 34.659 56.8368 33.9238 57.7987 33.1889C58.211 32.9133 58.6232 32.9133 59.0355 33.1889C59.4935 33.4646 59.6766 33.878 59.5852 34.4292C59.4935 34.8426 59.2874 35.2561 58.9668 35.6695C58.692 36.037 58.4399 36.4274 58.211 36.8408C57.9819 37.2084 57.7528 37.7135 57.5239 38.3567C57.3405 38.9999 57.3405 39.5739 57.5239 40.0793C58.0276 40.3549 58.646 40.4008 59.379 40.2171C60.1119 39.9874 60.7073 39.8037 61.1655 39.6659C63.1351 38.9769 64.9672 38.1959 66.6622 37.3232C66.9827 37.1854 67.372 37.0017 67.8302 36.7719C68.3339 36.4963 68.7005 36.5883 68.9296 37.0476C69.1585 37.461 69.1127 37.7824 68.7922 38.0122C68.5173 38.1959 68.2195 38.3567 67.8989 38.4945L63.3642 40.6305C62.4022 41.044 61.3486 41.5263 60.2036 42.0775C59.0583 42.5829 57.9132 42.6977 56.7681 42.422C55.9436 42.1923 55.4626 41.733 55.3252 41.044C55.2335 40.3091 55.3023 39.62 55.5314 38.9769L56.562 36.4963C55.371 37.0476 54.2029 37.6218 53.0578 38.2189C51.9585 38.816 50.8132 39.3672 49.6224 39.8726C49.1185 40.1482 48.5231 40.4927 47.836 40.9062C47.1489 41.2737 46.4158 41.6411 45.6373 42.0086C44.9042 42.3301 44.1714 42.5598 43.4386 42.6977C42.7056 42.8813 42.0644 42.8585 41.5148 42.6287C40.9651 42.4451 40.6673 42.1006 40.6216 41.5952C40.6216 41.044 40.759 40.4238 41.0338 39.7348C41.3086 39.0458 41.6979 38.3109 42.2019 37.5299C42.7056 36.7489 43.2325 35.991 43.7822 35.2561L42.1331 36.014C40.255 36.703 38.9038 37.2312 38.0793 37.5988C37.2548 37.9663 36.6135 38.1959 36.1555 38.2878C35.8806 38.3798 35.6745 38.3567 35.5371 38.2189C35.3537 38.0811 35.2393 37.9203 35.1936 37.7366C35.1019 37.5529 35.1019 37.369 35.1936 37.1854C35.2393 37.0017 35.3767 36.8639 35.6058 36.7719ZM67.8113 36.8408C68.361 36.5652 69.0481 36.2207 69.8726 35.8073C70.743 35.348 71.659 34.9115 72.6209 34.4981C73.5828 34.0847 74.499 33.6943 75.3693 33.3268C76.2855 32.9592 77.0413 32.6608 77.6367 32.431C77.9575 32.2932 78.5299 32.0865 79.3544 31.8109C80.1789 31.5353 81.0494 31.2827 81.9653 31.0529C82.8815 30.8232 83.729 30.6626 84.5075 30.5706C85.332 30.4787 85.9277 30.5476 86.294 30.7773C86.8436 31.2827 86.9353 31.742 86.5688 32.1554C86.2482 32.5688 85.836 32.8214 85.332 32.9133L82.2402 33.2578C81.599 33.4415 81.0493 33.6713 80.5911 33.9469C80.1789 34.1766 79.6979 34.4751 79.1483 34.8426C78.9194 35.0263 78.5071 35.4169 77.9115 36.014C77.3618 36.5652 76.8122 37.1854 76.2625 37.8744C75.7128 38.5176 75.2778 39.1605 74.957 39.8037C74.6365 40.4008 74.6365 40.8372 74.957 41.1129C75.2318 41.3426 75.6671 41.3885 76.2625 41.2507C76.9038 41.1129 77.5452 40.9062 78.1863 40.6305C78.8277 40.3549 79.4231 40.0793 79.9728 39.8037C80.5224 39.4822 80.889 39.2525 81.0721 39.1147C82.4006 38.2878 83.4769 37.4151 84.3014 36.4963C84.7137 36.037 85.1489 35.991 85.6069 36.3585C86.1108 36.68 86.2712 37.1395 86.0878 37.7366C85.9964 38.0581 85.836 38.3337 85.6069 38.5634C85.378 38.7932 85.1489 39.0227 84.9198 39.2525C84.7366 39.4361 84.5762 39.7118 84.4388 40.0793C84.2557 40.4008 84.21 40.6536 84.3014 40.8372C84.3931 40.9751 84.5535 41.067 84.7824 41.1129C85.4237 41.2048 86.2253 41.1587 87.1872 40.9751C88.1491 40.7914 89.134 40.5386 90.1417 40.2171C91.1953 39.8956 92.2259 39.5281 93.2336 39.1147C94.2414 38.6554 95.1117 38.242 95.8445 37.8744C96.0279 37.8285 96.2797 37.7135 96.6003 37.5299C96.9211 37.3001 97.2416 37.1165 97.5622 36.9786C97.9287 36.8408 98.2723 36.7719 98.5928 36.7719C98.9136 36.7719 99.1425 36.9097 99.2799 37.1854C99.4633 37.461 99.4403 37.7135 99.2112 37.9433C99.0281 38.1731 98.7532 38.3798 98.3867 38.5634C98.0204 38.7012 97.6539 38.839 97.2874 38.9769C96.9211 39.1147 96.6462 39.2294 96.4629 39.3214C95.6843 39.6889 94.9055 40.0563 94.1268 40.4238C93.3482 40.7453 92.5465 41.0898 91.722 41.4574C91.1723 41.6871 90.5769 41.9628 89.9355 42.2842C89.2944 42.6057 88.6301 42.8813 87.943 43.1111C87.2559 43.3408 86.5461 43.5014 85.813 43.5934C85.1259 43.6853 84.4848 43.6164 83.8892 43.3867C83.1106 43.0652 82.6524 42.6287 82.515 42.0775C82.3776 41.4804 82.4006 40.8603 82.5837 40.2171L80.7286 41.3196C79.95 41.7789 79.1255 42.2384 78.255 42.6977C77.4305 43.203 76.5603 43.5014 75.6441 43.5934C74.8196 43.6393 74.0868 43.4556 73.4454 43.0422C72.8043 42.6287 72.4607 41.9856 72.4148 41.1129C72.4148 40.6536 72.5982 40.0793 72.9645 39.3903C73.331 38.6554 73.789 37.9203 74.3386 37.1854C74.9343 36.4044 75.5754 35.6925 76.2625 35.0493C76.9496 34.4062 77.5909 33.9238 78.1863 33.6024C77.8658 33.6943 77.3391 33.901 76.606 34.2225C75.9189 34.544 75.1174 34.9346 74.2012 35.3939C73.331 35.8531 72.392 36.3355 71.3842 36.8408C70.4222 37.3001 69.529 37.7366 68.7045 38.15C68.4756 38.2878 68.2465 38.3337 68.0174 38.2878C67.7886 38.1959 67.6282 38.0811 67.5365 37.9433C67.3991 37.7596 67.3533 37.5757 67.3991 37.3921C67.3991 37.1623 67.5365 36.9786 67.8113 36.8408ZM98.004 36.8408C98.5079 36.5652 99.3782 36.1059 100.615 35.4628C101.852 34.7737 103.111 34.1306 104.394 33.5335C105.722 32.9364 106.936 32.523 108.035 32.2932C109.135 32.0634 109.822 32.2473 110.097 32.8444C110.28 33.3037 110.211 33.7632 109.891 34.2225C109.616 34.6359 109.41 35.0263 109.272 35.3939L108.448 37.3232C109.043 36.9556 109.639 36.6341 110.234 36.3585C110.83 36.0829 111.425 35.8073 112.021 35.5317C113.486 34.7507 114.998 33.9238 116.555 33.0511C118.113 32.1784 119.693 31.5122 121.296 31.0529C121.892 30.9151 122.419 30.9151 122.877 31.0529C123.335 31.1449 123.678 31.3516 123.907 31.6731C124.182 31.9487 124.319 32.3391 124.319 32.8444C124.319 33.3037 124.136 33.8091 123.77 34.3603C123.358 35.0035 122.9 35.5775 122.396 36.0829C121.938 36.5883 121.457 37.1395 120.953 37.7366C120.861 37.8744 120.701 38.0581 120.472 38.2878C120.243 38.5176 119.991 38.7932 119.716 39.1147C119.487 39.3903 119.258 39.6889 119.029 40.0104C118.846 40.286 118.731 40.5386 118.685 40.7683C119.006 40.8603 119.395 40.8603 119.853 40.7683C120.357 40.6764 120.838 40.5616 121.296 40.4238C121.8 40.2402 122.258 40.0563 122.67 39.8726C123.129 39.6889 123.472 39.5511 123.701 39.4592L126.518 38.2189C126.701 38.127 126.93 37.9892 127.205 37.8055C127.526 37.6218 127.847 37.461 128.167 37.3232C128.488 37.1395 128.786 36.9786 129.06 36.8408C129.381 36.703 129.633 36.6341 129.816 36.6341C130.228 36.6341 130.435 36.8408 130.435 37.2543C130.435 37.6677 130.251 37.9892 129.885 38.2189C129.473 38.4487 129.038 38.6782 128.579 38.908C128.121 39.0916 127.64 39.2983 127.136 39.5281C126.495 39.8956 125.877 40.2171 125.281 40.4927C124.686 40.7683 124.068 41.067 123.426 41.3885C123.06 41.5721 122.464 41.8478 121.64 42.2153C120.861 42.5368 120.059 42.7666 119.235 42.9044C118.456 43.088 117.769 43.0652 117.174 42.8355C116.578 42.6518 116.281 42.1006 116.281 41.1818C116.281 40.7225 116.395 40.3091 116.624 39.9415C116.853 39.5739 117.105 39.2294 117.38 38.908C117.701 38.5404 118.021 38.1959 118.342 37.8744C118.708 37.5529 119.029 37.2543 119.304 36.9786C119.579 36.7489 120.037 36.2666 120.678 35.5317C121.319 34.7968 121.731 34.1077 121.915 33.4646C120.678 33.6024 119.418 33.9238 118.136 34.4292C116.899 34.9346 115.754 35.4628 114.7 36.014C113.372 36.6572 111.998 37.3921 110.578 38.2189C109.158 38.9999 107.921 39.9415 106.867 41.044C106.639 41.2276 106.386 41.3426 106.112 41.3885C105.883 41.3885 105.654 41.3426 105.425 41.2507C105.196 41.1129 105.012 40.9292 104.875 40.6994C104.783 40.4697 104.783 40.1713 104.875 39.8037C105.012 39.3903 105.356 39.0227 105.905 38.7012C106.135 38.3337 106.364 37.9203 106.593 37.461C106.822 36.9556 106.982 36.6572 107.074 36.5652C107.165 36.2437 107.257 35.9221 107.348 35.6006C107.44 35.233 107.509 34.8657 107.554 34.4981C107.051 34.6359 106.547 34.7968 106.043 34.9804C105.539 35.1641 105.15 35.3019 104.875 35.3939C104.234 35.6695 103.592 35.9451 102.951 36.2207C102.31 36.4505 101.669 36.7261 101.027 37.0476C100.661 37.2312 100.317 37.4151 99.9965 37.5988C99.7217 37.7824 99.4011 37.9433 99.0346 38.0811C98.7598 38.2189 98.4849 38.2648 98.2101 38.2189C97.9812 38.127 97.7978 38.0122 97.6604 37.8744C97.523 37.7366 97.4773 37.5757 97.523 37.3921C97.523 37.1623 97.6834 36.9786 98.004 36.8408ZM129.205 36.8408C131.907 35.5086 134.541 34.1536 137.106 32.7755C137.839 32.408 138.664 31.9028 139.58 31.2596C140.496 30.6165 141.366 30.203 142.191 30.0194C142.695 29.9274 143.107 30.1113 143.427 30.5706C143.748 31.0299 143.725 31.4894 143.359 31.9487C143.13 32.3621 142.786 32.7525 142.328 33.12C141.916 33.4415 141.55 33.786 141.229 34.1536C140.313 35.2561 139.557 36.4274 138.961 37.6677C138.824 37.8974 138.687 38.1731 138.549 38.4945C138.412 38.816 138.297 39.1605 138.206 39.5281C138.114 39.8496 138.068 40.1482 138.068 40.4238C138.068 40.6994 138.16 40.9062 138.343 41.044C138.48 41.1818 138.778 41.1587 139.236 40.9751C139.694 40.7453 140.198 40.4927 140.748 40.2171C141.298 39.8956 141.801 39.597 142.259 39.3214C142.718 38.9999 142.992 38.7932 143.084 38.7012C144.046 38.0581 144.939 37.3921 145.764 36.703C146.634 36.014 147.459 35.2791 148.237 34.4981C148.42 34.3144 148.672 34.1536 148.993 34.0158C149.314 33.878 149.611 33.8321 149.886 33.878C150.161 33.9238 150.367 34.0616 150.504 34.2914C150.688 34.4751 150.757 34.7737 150.711 35.1872C150.573 35.6925 150.321 36.2207 149.955 36.7719C149.589 37.2773 149.291 37.7366 149.062 38.15C148.695 38.6554 148.375 39.1605 148.1 39.6659C147.825 40.1713 147.527 40.6764 147.206 41.1818L141.847 50.9661C143.405 48.899 145.122 46.9697 147 45.1782C147.184 44.9945 147.596 44.6039 148.237 44.0068C148.878 43.4097 149.611 42.7435 150.436 42.0086C151.26 41.2737 152.131 40.5386 153.047 39.8037C154.009 39.0227 154.902 38.3567 155.726 37.8055C156.597 37.2543 157.33 36.8639 157.925 36.6341C158.521 36.4044 158.91 36.4505 159.093 36.7719C159.23 37.0476 159.093 37.3921 158.681 37.8055C158.315 38.1731 157.834 38.5634 157.238 38.9769C156.688 39.3444 156.116 39.6889 155.52 40.0104C154.925 40.3319 154.536 40.5616 154.352 40.6994C153.299 41.4804 152.268 42.2842 151.26 43.1111C150.298 43.9838 149.359 44.9026 148.443 45.8672C146.657 47.6587 144.962 49.588 143.359 51.6551C141.801 53.7681 140.336 55.9272 138.961 58.1321C138.458 59.0509 137.954 59.9694 137.45 60.8882C136.946 61.807 136.465 62.7256 136.007 63.6444C135.824 63.92 135.663 64.2186 135.526 64.5401C135.389 64.8616 135.205 65.1372 134.976 65.367C134.61 65.5967 134.22 65.6426 133.808 65.5048C133.396 65.3669 133.144 65.0913 133.052 64.6779C132.915 64.3104 132.938 63.9658 133.121 63.6444C133.35 63.3687 133.556 63.0931 133.74 62.8175C134.381 61.6692 134.999 60.5437 135.595 59.4412C136.236 58.3388 136.877 57.1905 137.519 55.9961C138.801 53.6533 140.038 51.3336 141.229 49.0368C142.466 46.7399 143.68 44.3744 144.87 41.9397C145.145 41.2965 145.443 40.6764 145.764 40.0793C146.084 39.4361 146.382 38.7932 146.657 38.15L143.771 40.3549C143.359 40.7225 142.901 41.1359 142.397 41.5952C141.893 42.0086 141.366 42.3762 140.817 42.6977C140.267 43.0652 139.694 43.3178 139.099 43.4556C138.549 43.5934 137.999 43.5245 137.45 43.2489C136.671 42.9733 136.213 42.4909 136.076 41.8019C135.984 41.1129 136.053 40.3319 136.282 39.4592C136.557 38.5404 136.946 37.5988 137.45 36.6341C137.999 35.6695 138.549 34.7507 139.099 33.878L135.663 35.325C134.885 35.6925 134.106 36.0829 133.327 36.4963C132.549 36.8639 131.77 37.2543 130.991 37.6677C130.716 37.8514 130.419 38.0352 130.098 38.2189C129.777 38.4026 129.434 38.4026 129.067 38.2189C128.792 38.0352 128.678 37.7824 128.724 37.461C128.724 37.1395 128.884 36.9328 129.205 36.8408Z" fill="#C19992"/>
<path d="M61.2044 60.7708V52.7648L57.559 59.0281H57.1148L53.4694 52.7648V60.7708H52.803V51.4677H53.4694L57.3369 58.124L61.2044 51.4677H61.8708V60.7708H61.2044ZM67.4542 60.7708V54.034H68.1165V60.7708H67.4542ZM72.3558 60.7708V54.034H75.1942C75.4844 54.034 75.7493 54.0941 75.989 54.2143C76.235 54.3345 76.4463 54.499 76.6229 54.7077C76.7995 54.9101 76.9351 55.1378 77.0298 55.3909C77.1307 55.6376 77.1811 55.8906 77.1811 56.1499C77.1811 56.4789 77.1181 56.7857 76.9919 57.0703C76.8721 57.355 76.6986 57.5953 76.4715 57.7914C76.2445 57.9875 75.9827 58.114 75.6862 58.171L77.3325 60.7708H76.5851L75.005 58.2848H73.0181V60.7708H72.3558ZM73.0181 57.6965H75.2131C75.4781 57.6965 75.7083 57.6238 75.9038 57.4783C76.0994 57.3265 76.2508 57.1336 76.358 56.8995C76.4652 56.6655 76.5188 56.4156 76.5188 56.1499C76.5188 55.8779 76.4558 55.6281 76.3296 55.4004C76.2098 55.1663 76.0458 54.9797 75.8376 54.8405C75.6294 54.6951 75.4024 54.6223 75.1564 54.6223H73.0181V57.6965ZM83.1457 54.034H83.704L86.4951 60.7708H85.795L84.9245 58.6644H81.9063L81.0453 60.7708H80.3357L83.1457 54.034ZM84.7731 58.1425L83.4201 54.8121L82.0482 58.1425H84.7731ZM90.6749 55.258V60.7708H90.0126V54.034H90.5613L94.9704 59.6511V54.0435H95.6327V60.7708H95.0177L90.6749 55.258ZM99.876 60.7708V54.034H102.156C102.869 54.034 103.462 54.1858 103.935 54.4895C104.414 54.7868 104.774 55.1916 105.014 55.704C105.253 56.21 105.373 56.773 105.373 57.3929C105.373 58.0761 105.241 58.6707 104.976 59.1767C104.711 59.6828 104.339 60.075 103.859 60.3533C103.38 60.6316 102.812 60.7708 102.156 60.7708H99.876ZM104.711 57.3929C104.711 56.8552 104.61 56.3777 104.408 55.9602C104.213 55.5427 103.922 55.2169 103.538 54.9829C103.159 54.7425 102.699 54.6223 102.156 54.6223H100.538V60.1825H102.156C102.711 60.1825 103.178 60.0591 103.557 59.8124C103.935 59.5657 104.222 59.2337 104.418 58.8162C104.613 58.3987 104.711 57.9243 104.711 57.3929ZM111.035 54.034H111.594L114.385 60.7708H113.685L112.814 58.6644H109.796L108.935 60.7708H108.225L111.035 54.034ZM112.663 58.1425L111.31 54.8121L109.938 58.1425H112.663Z" fill="#C19992"/>
</svg>
